<?xml version="1.0" encoding="utf-8"?>
<!-- Generator: Adobe Illustrator 27.4.1, SVG Export Plug-In . SVG Version: 6.00 Build 0)  -->
<svg version="1.1" id="Capa_1" xmlns="http://www.w3.org/2000/svg" xmlns:xlink="http://www.w3.org/1999/xlink" x="0px" y="0px"
	 viewBox="0 0 538 538" style="enable-background:new 0 0 538 538;" xml:space="preserve">
<style type="text/css">
	.st0{fill:#F0F0F0;}
</style>
<path class="st0" d="M157.3,354.4h-9.4c-1.1,3.2-2.2,6.2-3.3,9.3c2.6,2.7,5.2,5.5,8,8.5c2.9-3.1,5.6-6,8-8.5
	C159.4,360.4,158.4,357.5,157.3,354.4z M165.8,300.9c-10.7-1.6-21.3-3.1-29.1-11.8c-0.4-0.5-1.3-0.9-1.9-0.8c-2.7,0-8.1,5.6-8.1,8.3
	c0,7.2-0.2,14.5,0.1,21.7c0.5,12.9,10.5,23.6,22.8,24.8c13.5,1.3,25.6-6.7,28.2-19.7c1.3-6.6,0.9-13.6,1.2-20.6
	C174.1,302.1,169.9,301.5,165.8,300.9z M329.9,194c-4-24.5-22.6-43-47.5-47.7c-22.8-4.3-47,7-59.3,27.7
	c-12.5,20.9-10.7,47.3,5.2,66.1c7.7,9.1,14.7,18.2,17.2,30.1h21.8c0-12,0-23.8,0-35.7c0-0.8,0.2-1.6-0.1-2.2c-0.5-1.1-1.1-2.2-1.9-3
	c-4-4.1-8.1-8.1-12.2-12.2c-2.9-3-3.2-6.1-0.9-8.6c2.4-2.6,5.7-2.4,8.8,0.6c3.9,3.9,7.6,7.9,11.7,12c4-4,7.7-7.8,11.4-11.4
	c3.6-3.6,6.7-4,9.4-1.3c2.6,2.6,2,5.8-1.5,9.4c-3.8,3.8-7.7,7.5-11.3,11.5c-1.1,1.2-2,3.2-2,4.8c-0.2,11.1-0.1,22.2-0.1,33.3
	c0,1,0.2,1.9,0.2,2.9h21.5c2.4-12.6,10.4-22,18.2-31.6C329.1,225.7,332.6,210.4,329.9,194z M348.6,392.4c0-7-1.3-13.7-4.7-19.8
	c-8.7-15.5-22.2-22.2-39.7-21.6c-2.7,0.1-4.6,0.7-6.5,2.8c-7,7.8-14.2,15.4-21.4,23.1c-3.9,4.2-6.8,4.2-10.7,0.1
	c-5.9-6.3-12.2-12.3-17.5-19c-4.6-5.9-9.9-7.4-17.1-6.9c-19,1.4-35.4,15.6-37.2,34.5c-1.2,12.9-0.6,25.9-0.7,38.9
	c-0.1,5.2,0.3,5.5,5.5,5.5c24,0,47.9,0,71.9,0c24.3,0,48.7,0,73,0c4.4,0,5-0.5,5-4.9C348.7,414.1,348.7,403.2,348.6,392.4z
	 M389,354.4h-9.4c-1.1,2.8-2,5.2-2.8,7.7c-0.2,0.7-0.2,1.8,0.2,2.3c2.3,2.7,4.8,5.2,7.3,7.9c2.9-3.2,5.5-6,7.9-8.6
	C391.1,360.4,390.1,357.4,389,354.4z M397.7,301c-10.8-1.6-21.6-3.2-29.5-12c-0.4-0.5-1.3-0.8-1.9-0.7c-2.8,0.2-7.9,5.5-7.9,8.4
	c0,7.2-0.2,14.5,0.1,21.7c0.4,13,10.5,23.6,23.2,24.7c13.6,1.1,25.6-7.4,27.8-20.7c1.1-6.3,0.7-12.9,1-19.7
	C405.8,302,401.8,301.5,397.7,301z M397.7,301c-10.8-1.6-21.6-3.2-29.5-12c-0.4-0.5-1.3-0.8-1.9-0.7c-2.8,0.2-7.9,5.5-7.9,8.4
	c0,7.2-0.2,14.5,0.1,21.7c0.4,13,10.5,23.6,23.2,24.7c13.6,1.1,25.6-7.4,27.8-20.7c1.1-6.3,0.7-12.9,1-19.7
	C405.8,302,401.8,301.5,397.7,301z M389,354.4h-9.4c-1.1,2.8-2,5.2-2.8,7.7c-0.2,0.7-0.2,1.8,0.2,2.3c2.3,2.7,4.8,5.2,7.3,7.9
	c2.9-3.2,5.5-6,7.9-8.6C391.1,360.4,390.1,357.4,389,354.4z M348.6,392.4c0-7-1.3-13.7-4.7-19.8c-8.7-15.5-22.2-22.2-39.7-21.6
	c-2.7,0.1-4.6,0.7-6.5,2.8c-7,7.8-14.2,15.4-21.4,23.1c-3.9,4.2-6.8,4.2-10.7,0.1c-5.9-6.3-12.2-12.3-17.5-19
	c-4.6-5.9-9.9-7.4-17.1-6.9c-19,1.4-35.4,15.6-37.2,34.5c-1.2,12.9-0.6,25.9-0.7,38.9c-0.1,5.2,0.3,5.5,5.5,5.5c24,0,47.9,0,71.9,0
	c24.3,0,48.7,0,73,0c4.4,0,5-0.5,5-4.9C348.7,414.1,348.7,403.2,348.6,392.4z M329.9,194c-4-24.5-22.6-43-47.5-47.7
	c-22.8-4.3-47,7-59.3,27.7c-12.5,20.9-10.7,47.3,5.2,66.1c7.7,9.1,14.7,18.2,17.2,30.1h21.8c0-12,0-23.8,0-35.7
	c0-0.8,0.2-1.6-0.1-2.2c-0.5-1.1-1.1-2.2-1.9-3c-4-4.1-8.1-8.1-12.2-12.2c-2.9-3-3.2-6.1-0.9-8.6c2.4-2.6,5.7-2.4,8.8,0.6
	c3.9,3.9,7.6,7.9,11.7,12c4-4,7.7-7.8,11.4-11.4c3.6-3.6,6.7-4,9.4-1.3c2.6,2.6,2,5.8-1.5,9.4c-3.8,3.8-7.7,7.5-11.3,11.5
	c-1.1,1.2-2,3.2-2,4.8c-0.2,11.1-0.1,22.2-0.1,33.3c0,1,0.2,1.9,0.2,2.9h21.5c2.4-12.6,10.4-22,18.2-31.6
	C329.1,225.7,332.6,210.4,329.9,194z M165.8,300.9c-10.7-1.6-21.3-3.1-29.1-11.8c-0.4-0.5-1.3-0.9-1.9-0.8c-2.7,0-8.1,5.6-8.1,8.3
	c0,7.2-0.2,14.5,0.1,21.7c0.5,12.9,10.5,23.6,22.8,24.8c13.5,1.3,25.6-6.7,28.2-19.7c1.3-6.6,0.9-13.6,1.2-20.6
	C174.1,302.1,169.9,301.5,165.8,300.9z M157.3,354.4h-9.4c-1.1,3.2-2.2,6.2-3.3,9.3c2.6,2.7,5.2,5.5,8,8.5c2.9-3.1,5.6-6,8-8.5
	C159.4,360.4,158.4,357.5,157.3,354.4z M157.3,354.4h-9.4c-1.1,3.2-2.2,6.2-3.3,9.3c2.6,2.7,5.2,5.5,8,8.5c2.9-3.1,5.6-6,8-8.5
	C159.4,360.4,158.4,357.5,157.3,354.4z M165.8,300.9c-10.7-1.6-21.3-3.1-29.1-11.8c-0.4-0.5-1.3-0.9-1.9-0.8c-2.7,0-8.1,5.6-8.1,8.3
	c0,7.2-0.2,14.5,0.1,21.7c0.5,12.9,10.5,23.6,22.8,24.8c13.5,1.3,25.6-6.7,28.2-19.7c1.3-6.6,0.9-13.6,1.2-20.6
	C174.1,302.1,169.9,301.5,165.8,300.9z M329.9,194c-4-24.5-22.6-43-47.5-47.7c-22.8-4.3-47,7-59.3,27.7
	c-12.5,20.9-10.7,47.3,5.2,66.1c7.7,9.1,14.7,18.2,17.2,30.1h21.8c0-12,0-23.8,0-35.7c0-0.8,0.2-1.6-0.1-2.2c-0.5-1.1-1.1-2.2-1.9-3
	c-4-4.1-8.1-8.1-12.2-12.2c-2.9-3-3.2-6.1-0.9-8.6c2.4-2.6,5.7-2.4,8.8,0.6c3.9,3.9,7.6,7.9,11.7,12c4-4,7.7-7.8,11.4-11.4
	c3.6-3.6,6.7-4,9.4-1.3c2.6,2.6,2,5.8-1.5,9.4c-3.8,3.8-7.7,7.5-11.3,11.5c-1.1,1.2-2,3.2-2,4.8c-0.2,11.1-0.1,22.2-0.1,33.3
	c0,1,0.2,1.9,0.2,2.9h21.5c2.4-12.6,10.4-22,18.2-31.6C329.1,225.7,332.6,210.4,329.9,194z M348.6,392.4c0-7-1.3-13.7-4.7-19.8
	c-8.7-15.5-22.2-22.2-39.7-21.6c-2.7,0.1-4.6,0.7-6.5,2.8c-7,7.8-14.2,15.4-21.4,23.1c-3.9,4.2-6.8,4.2-10.7,0.1
	c-5.9-6.3-12.2-12.3-17.5-19c-4.6-5.9-9.9-7.4-17.1-6.9c-19,1.4-35.4,15.6-37.2,34.5c-1.2,12.9-0.6,25.9-0.7,38.9
	c-0.1,5.2,0.3,5.5,5.5,5.5c24,0,47.9,0,71.9,0c24.3,0,48.7,0,73,0c4.4,0,5-0.5,5-4.9C348.7,414.1,348.7,403.2,348.6,392.4z
	 M389,354.4h-9.4c-1.1,2.8-2,5.2-2.8,7.7c-0.2,0.7-0.2,1.8,0.2,2.3c2.3,2.7,4.8,5.2,7.3,7.9c2.9-3.2,5.5-6,7.9-8.6
	C391.1,360.4,390.1,357.4,389,354.4z M397.7,301c-10.8-1.6-21.6-3.2-29.5-12c-0.4-0.5-1.3-0.8-1.9-0.7c-2.8,0.2-7.9,5.5-7.9,8.4
	c0,7.2-0.2,14.5,0.1,21.7c0.4,13,10.5,23.6,23.2,24.7c13.6,1.1,25.6-7.4,27.8-20.7c1.1-6.3,0.7-12.9,1-19.7
	C405.8,302,401.8,301.5,397.7,301z M397.7,301c-10.8-1.6-21.6-3.2-29.5-12c-0.4-0.5-1.3-0.8-1.9-0.7c-2.8,0.2-7.9,5.5-7.9,8.4
	c0,7.2-0.2,14.5,0.1,21.7c0.4,13,10.5,23.6,23.2,24.7c13.6,1.1,25.6-7.4,27.8-20.7c1.1-6.3,0.7-12.9,1-19.7
	C405.8,302,401.8,301.5,397.7,301z M389,354.4h-9.4c-1.1,2.8-2,5.2-2.8,7.7c-0.2,0.7-0.2,1.8,0.2,2.3c2.3,2.7,4.8,5.2,7.3,7.9
	c2.9-3.2,5.5-6,7.9-8.6C391.1,360.4,390.1,357.4,389,354.4z M348.6,392.4c0-7-1.3-13.7-4.7-19.8c-8.7-15.5-22.2-22.2-39.7-21.6
	c-2.7,0.1-4.6,0.7-6.5,2.8c-7,7.8-14.2,15.4-21.4,23.1c-3.9,4.2-6.8,4.2-10.7,0.1c-5.9-6.3-12.2-12.3-17.5-19
	c-4.6-5.9-9.9-7.4-17.1-6.9c-19,1.4-35.4,15.6-37.2,34.5c-1.2,12.9-0.6,25.9-0.7,38.9c-0.1,5.2,0.3,5.5,5.5,5.5c24,0,47.9,0,71.9,0
	c24.3,0,48.7,0,73,0c4.4,0,5-0.5,5-4.9C348.7,414.1,348.7,403.2,348.6,392.4z M329.9,194c-4-24.5-22.6-43-47.5-47.7
	c-22.8-4.3-47,7-59.3,27.7c-12.5,20.9-10.7,47.3,5.2,66.1c7.7,9.1,14.7,18.2,17.2,30.1h21.8c0-12,0-23.8,0-35.7
	c0-0.8,0.2-1.6-0.1-2.2c-0.5-1.1-1.1-2.2-1.9-3c-4-4.1-8.1-8.1-12.2-12.2c-2.9-3-3.2-6.1-0.9-8.6c2.4-2.6,5.7-2.4,8.8,0.6
	c3.9,3.9,7.6,7.9,11.7,12c4-4,7.7-7.8,11.4-11.4c3.6-3.6,6.7-4,9.4-1.3c2.6,2.6,2,5.8-1.5,9.4c-3.8,3.8-7.7,7.5-11.3,11.5
	c-1.1,1.2-2,3.2-2,4.8c-0.2,11.1-0.1,22.2-0.1,33.3c0,1,0.2,1.9,0.2,2.9h21.5c2.4-12.6,10.4-22,18.2-31.6
	C329.1,225.7,332.6,210.4,329.9,194z M165.8,300.9c-10.7-1.6-21.3-3.1-29.1-11.8c-0.4-0.5-1.3-0.9-1.9-0.8c-2.7,0-8.1,5.6-8.1,8.3
	c0,7.2-0.2,14.5,0.1,21.7c0.5,12.9,10.5,23.6,22.8,24.8c13.5,1.3,25.6-6.7,28.2-19.7c1.3-6.6,0.9-13.6,1.2-20.6
	C174.1,302.1,169.9,301.5,165.8,300.9z M157.3,354.4h-9.4c-1.1,3.2-2.2,6.2-3.3,9.3c2.6,2.7,5.2,5.5,8,8.5c2.9-3.1,5.6-6,8-8.5
	C159.4,360.4,158.4,357.5,157.3,354.4z M157.3,354.4h-9.4c-1.1,3.2-2.2,6.2-3.3,9.3c2.6,2.7,5.2,5.5,8,8.5c2.9-3.1,5.6-6,8-8.5
	C159.4,360.4,158.4,357.5,157.3,354.4z M165.8,300.9c-10.7-1.6-21.3-3.1-29.1-11.8c-0.4-0.5-1.3-0.9-1.9-0.8c-2.7,0-8.1,5.6-8.1,8.3
	c0,7.2-0.2,14.5,0.1,21.7c0.5,12.9,10.5,23.6,22.8,24.8c13.5,1.3,25.6-6.7,28.2-19.7c1.3-6.6,0.9-13.6,1.2-20.6
	C174.1,302.1,169.9,301.5,165.8,300.9z M329.9,194c-4-24.5-22.6-43-47.5-47.7c-22.8-4.3-47,7-59.3,27.7
	c-12.5,20.9-10.7,47.3,5.2,66.1c7.7,9.1,14.7,18.2,17.2,30.1h21.8c0-12,0-23.8,0-35.7c0-0.8,0.2-1.6-0.1-2.2c-0.5-1.1-1.1-2.2-1.9-3
	c-4-4.1-8.1-8.1-12.2-12.2c-2.9-3-3.2-6.1-0.9-8.6c2.4-2.6,5.7-2.4,8.8,0.6c3.9,3.9,7.6,7.9,11.7,12c4-4,7.7-7.8,11.4-11.4
	c3.6-3.6,6.7-4,9.4-1.3c2.6,2.6,2,5.8-1.5,9.4c-3.8,3.8-7.7,7.5-11.3,11.5c-1.1,1.2-2,3.2-2,4.8c-0.2,11.1-0.1,22.2-0.1,33.3
	c0,1,0.2,1.9,0.2,2.9h21.5c2.4-12.6,10.4-22,18.2-31.6C329.1,225.7,332.6,210.4,329.9,194z M348.6,392.4c0-7-1.3-13.7-4.7-19.8
	c-8.7-15.5-22.2-22.2-39.7-21.6c-2.7,0.1-4.6,0.7-6.5,2.8c-7,7.8-14.2,15.4-21.4,23.1c-3.9,4.2-6.8,4.2-10.7,0.1
	c-5.9-6.3-12.2-12.3-17.5-19c-4.6-5.9-9.9-7.4-17.1-6.9c-19,1.4-35.4,15.6-37.2,34.5c-1.2,12.9-0.6,25.9-0.7,38.9
	c-0.1,5.2,0.3,5.5,5.5,5.5c24,0,47.9,0,71.9,0c24.3,0,48.7,0,73,0c4.4,0,5-0.5,5-4.9C348.7,414.1,348.7,403.2,348.6,392.4z
	 M389,354.4h-9.4c-1.1,2.8-2,5.2-2.8,7.7c-0.2,0.7-0.2,1.8,0.2,2.3c2.3,2.7,4.8,5.2,7.3,7.9c2.9-3.2,5.5-6,7.9-8.6
	C391.1,360.4,390.1,357.4,389,354.4z M397.7,301c-10.8-1.6-21.6-3.2-29.5-12c-0.4-0.5-1.3-0.8-1.9-0.7c-2.8,0.2-7.9,5.5-7.9,8.4
	c0,7.2-0.2,14.5,0.1,21.7c0.4,13,10.5,23.6,23.2,24.7c13.6,1.1,25.6-7.4,27.8-20.7c1.1-6.3,0.7-12.9,1-19.7
	C405.8,302,401.8,301.5,397.7,301z M397.7,301c-10.8-1.6-21.6-3.2-29.5-12c-0.4-0.5-1.3-0.8-1.9-0.7c-2.8,0.2-7.9,5.5-7.9,8.4
	c0,7.2-0.2,14.5,0.1,21.7c0.4,13,10.5,23.6,23.2,24.7c13.6,1.1,25.6-7.4,27.8-20.7c1.1-6.3,0.7-12.9,1-19.7
	C405.8,302,401.8,301.5,397.7,301z M379.7,354.4c-1.1,2.8-2,5.2-2.8,7.7c-0.2,0.7-0.2,1.8,0.2,2.3c2.3,2.7,4.8,5.2,7.3,7.9
	c2.9-3.2,5.5-6,7.9-8.6c-1.2-3.3-2.2-6.3-3.2-9.3H379.7z M343.9,372.6c-8.7-15.5-22.2-22.2-39.7-21.6c-2.7,0.1-4.6,0.7-6.5,2.8
	c-7,7.8-14.2,15.4-21.4,23.1c-3.9,4.2-6.8,4.2-10.7,0.1c-5.9-6.3-12.2-12.3-17.5-19c-4.6-5.9-9.9-7.4-17.1-6.9
	c-19,1.4-35.4,15.6-37.2,34.5c-1.2,12.9-0.6,25.9-0.7,38.9c-0.1,5.2,0.3,5.5,5.5,5.5c24,0,47.9,0,71.9,0c24.3,0,48.7,0,73,0
	c4.4,0,5-0.5,5-4.9c0-10.9,0.1-21.7,0-32.6C348.6,385.4,347.3,378.7,343.9,372.6z M245.5,270.2h21.8c0-12,0-23.8,0-35.7
	c0-0.8,0.2-1.6-0.1-2.2c-0.5-1.1-1.1-2.2-1.9-3c-4-4.1-8.1-8.1-12.2-12.2c-2.9-3-3.2-6.1-0.9-8.6c2.4-2.6,5.7-2.4,8.8,0.6
	c3.9,3.9,7.6,7.9,11.7,12c4-4,7.7-7.8,11.4-11.4c3.6-3.6,6.7-4,9.4-1.3c2.6,2.6,2,5.8-1.5,9.4c-3.8,3.8-7.7,7.5-11.3,11.5
	c-1.1,1.2-2,3.2-2,4.8c-0.2,11.1-0.1,22.2-0.1,33.3c0,1,0.2,1.9,0.2,2.9h21.5c2.4-12.6,10.4-22,18.2-31.6
	c10.5-13,14.1-28.2,11.4-44.7c-4-24.5-22.6-43-47.5-47.7c-22.8-4.3-47,7-59.3,27.7c-12.5,20.9-10.7,47.3,5.2,66.1
	C235.9,249.1,243,258.3,245.5,270.2z M136.6,289.1c-0.4-0.5-1.3-0.9-1.9-0.8c-2.7,0-8.1,5.6-8.1,8.3c0,7.2-0.2,14.5,0.1,21.7
	c0.5,12.9,10.5,23.6,22.8,24.8c13.5,1.3,25.6-6.7,28.2-19.7c1.3-6.6,0.9-13.6,1.2-20.6c-4.8-0.6-9-1.2-13.2-1.8
	C155.1,299.4,144.4,297.8,136.6,289.1z M147.9,354.4c-1.1,3.2-2.2,6.2-3.3,9.3c2.6,2.7,5.2,5.5,8,8.5c2.9-3.1,5.6-6,8-8.5
	c-1.2-3.3-2.2-6.2-3.3-9.3H147.9z M492.8,119.8c-19.8-29.7-45.3-55.2-75-75c-42.7-28.4-93.9-45-149-45s-106.3,16.6-149,45
	c-29.7,19.8-55.2,45.3-75,75c-28.4,42.6-45,93.9-45,149s16.6,106.3,45,149c19.8,29.7,45.3,55.2,75,75c42.6,28.4,93.9,45,149,45
	s106.3-16.6,149-45c29.7-19.8,55.2-45.3,75-75c28.4-42.6,45-93.9,45-149S521.2,162.5,492.8,119.8z M365.3,210.1
	c0.2-3.2,2.2-4.9,5.3-5.1c1.9-0.1,3.7,0,5.6,0c1.7,0,3.5-0.1,5.2,0c3.2,0.2,5.1,2.1,5.3,5.2c0.2,3.1-1.6,5.5-4.6,5.8
	c-4,0.4-8.2,0.4-12.2,0C366.8,215.6,365.1,213.3,365.3,210.1z M338,137.5c2.4-2.7,4.8-5.5,7.7-7.6c1.5-1.1,4.3-1.4,6.1-0.8
	c1.5,0.4,2.5,2.7,3.6,4.1c-0.8,1.9-1,3.3-1.9,4.3c-2.5,2.8-5.1,5.5-7.9,7.9c-2.4,2.1-5.8,1.8-7.7-0.5
	C336,142.5,335.9,139.9,338,137.5z M267.3,101.8c0.3-3.1,2.2-4.9,5.3-5.2c2.9-0.2,5.6,2,5.8,5.1c0.2,3.7,0.2,7.5,0,11.2
	c-0.2,3.1-2.8,5.4-5.7,5.2c-3.1-0.2-5.1-2-5.4-5.2c-0.2-2,0-4,0-6C267.3,105.3,267.1,103.5,267.3,101.8z M191.9,130.5
	c1.7-2.2,4.6-3.1,6.6-1.5c3.7,2.9,6.8,6.5,10.1,9.9c0.4,0.5,0.4,1.4,0.8,3.1c-0.9,1.1-1.8,3.4-3.4,4c-1.6,0.7-4.4,0.5-5.8-0.5
	c-3.1-2.3-5.7-5.2-8.2-8.1C190.1,135.3,190.2,132.7,191.9,130.5z M159,210c0.3-2.9,2-4.8,5.1-5c1.9-0.1,3.7,0,5.6,0c0,0,0,0,0,0
	c1.9,0,3.7-0.1,5.6,0c3,0.2,4.8,2,5.1,4.9c0.3,3.2-1.3,5.6-4.4,5.9c-4.2,0.4-8.4,0.5-12.6,0C160.4,215.6,158.7,213.1,159,210z
	 M440.4,409.2c-0.1,6.4-3.2,9.7-9.6,9.8c-5.2,0.1-10.5,0-15.7,0h-55.4c0,3,0.1,5.6,0,8.2c-0.3,8.2-5.9,13.7-14.2,13.7
	c-49.7,0-99.3,0-149,0c-8.1,0-13.7-5.3-14.2-13.4c-0.2-2.6,0-5.2,0-8.5h-69.7c-14.3,0-15.5-1.1-15.5-15.6c0-5.4-0.1-10.7,0.1-16.1
	c0.6-17.3,14.4-30.7,31.7-31.1c1.4,0,2.8,0.2,4.1-0.1c1.1-0.2,3.1-1,3.1-1.5c-0.1-1.6-0.3-4.1-1.4-4.7c-8.7-5.1-14.5-12.3-17.7-21.9
	c-0.3-1-1.4-2-2.3-2.6c-8.3-5.6-9.8-15.2-3.8-23.1c0.9-1.2,1.5-2.8,1.5-4.3c0.2-4.7,0.1-9.5,0.1-14.2c-0.1-7.1,2.9-12.5,8.7-16.4
	c6.2-4.3,13.3-6.2,20.7-7.1c11.8-1.4,23.5-1.2,34.6,3.3c3.6,1.5,7.1,3.6,10.2,6.1c4,3.2,6,7.6,5.9,12.8c0,3,0,6,0,9
	c-0.1,4.8,0.1,9.2,3.3,13.6c4.6,6.4,1.8,15.4-4.8,20.1c-1.4,1-2.6,2.6-3.2,4.2c-3.1,8.5-8.4,15.3-16.3,19.8c-3.1,1.8-3.5,3.8-2,7.4
	c3.7,0,7.7-0.4,11.6,0.1c3.8,0.5,7.4,2.1,11.6,3.4c13.2-16.8,31.5-22.1,52.5-19.9c-0.3-4.4-0.5-8.2-0.7-12.5h-5.2
	c-9.4,0-15-4.1-16.6-11.8c-1.5-7.2,2.6-13.4,11.3-16.8c-7.1-2.4-11.6-6.9-11.5-14.5c0.1-7.2,4.4-11.6,11.3-13.9
	c-1.4-6.2-4.3-11.5-8.2-16.3c-2.7-3.3-5.7-6.3-8.2-9.7c-15.4-21.7-18.4-45.2-7.5-69.4c10.9-24.2,30.3-38,56.8-40.5
	c39.5-3.6,73.4,26.2,75.2,65.8c0.8,18.8-5.3,35.3-17.9,49.4c-7.2,8.1-10.4,13.4-12.3,21.4c11.9,11,10.8,21-3.3,27.8
	c6.8,2.2,11.2,6.5,11.4,14c0.2,8.1-5.8,14.2-14.3,14.6c-2.5,0.1-5,0-7.7,0c-0.2,4.2-0.4,8-0.7,12.2c3,0,6,0,9,0
	c16.1-0.2,29.8,5.2,40.7,17.2c0.7,0.7,2.1,1.2,3,1.1c5-0.5,10.1-1.2,15.1-2c1.1-0.2,3.1-1.1,3.1-1.5c-0.1-1.6-0.4-4-1.5-4.7
	c-8.7-5.1-14.6-12.3-17.7-21.9c-0.3-1-1.4-2-2.3-2.6c-8.3-5.7-9.8-15.6-3.5-23.4c0.8-1,1.4-2.6,1.4-3.9c0.2-5,0.2-10,0-15
	c-0.1-6.4,2.7-11.3,7.6-15c6.4-4.8,13.8-6.9,21.5-7.8c11.9-1.5,23.7-1.1,35,3.4c11.4,4.5,16.8,11.1,15.9,23.2
	c-0.2,3.5-0.2,7,0.1,10.5c0.1,1.8,0.8,3.9,1.8,5.3c5.6,7.5,4,17.3-3.8,22.6c-1.3,0.9-2.5,2.4-3,3.9c-3.2,8.8-8.5,15.8-16.8,20.3
	c-2.5,1.4-2.8,3.3-2,5.2c0.4,0.9,2.5,1.5,3.9,1.6c17.7,0.2,29.8,8.1,34.2,22.8c1,3.2,1.4,6.6,1.5,9.9
	C440.6,395.7,440.5,402.5,440.4,409.2z M409.6,322.4c1.1-6.3,0.7-12.9,1-19.7c-4.7-0.6-8.8-1.1-12.9-1.7c-10.8-1.6-21.6-3.2-29.5-12
	c-0.4-0.5-1.3-0.8-1.9-0.7c-2.8,0.2-7.9,5.5-7.9,8.4c0,7.2-0.2,14.5,0.1,21.7c0.4,13,10.5,23.6,23.2,24.7
	C395.3,344.2,407.3,335.6,409.6,322.4z M379.7,354.4c-1.1,2.8-2,5.2-2.8,7.7c-0.2,0.7-0.2,1.8,0.2,2.3c2.3,2.7,4.8,5.2,7.3,7.9
	c2.9-3.2,5.5-6,7.9-8.6c-1.2-3.3-2.2-6.3-3.2-9.3H379.7z M343.9,372.6c-8.7-15.5-22.2-22.2-39.7-21.6c-2.7,0.1-4.6,0.7-6.5,2.8
	c-7,7.8-14.2,15.4-21.4,23.1c-3.9,4.2-6.8,4.2-10.7,0.1c-5.9-6.3-12.2-12.3-17.5-19c-4.6-5.9-9.9-7.4-17.1-6.9
	c-19,1.4-35.4,15.6-37.2,34.5c-1.2,12.9-0.6,25.9-0.7,38.9c-0.1,5.2,0.3,5.5,5.5,5.5c24,0,47.9,0,71.9,0c24.3,0,48.7,0,73,0
	c4.4,0,5-0.5,5-4.9c0-10.9,0.1-21.7,0-32.6C348.6,385.4,347.3,378.7,343.9,372.6z M267.3,270.2c0-12,0-23.8,0-35.7
	c0-0.8,0.2-1.6-0.1-2.2c-0.5-1.1-1.1-2.2-1.9-3c-4-4.1-8.1-8.1-12.2-12.2c-2.9-3-3.2-6.1-0.9-8.6c2.4-2.6,5.7-2.4,8.8,0.6
	c3.9,3.9,7.6,7.9,11.7,12c4-4,7.7-7.8,11.4-11.4c3.6-3.6,6.7-4,9.4-1.3c2.6,2.6,2,5.8-1.5,9.4c-3.8,3.8-7.7,7.5-11.3,11.5
	c-1.1,1.2-2,3.2-2,4.8c-0.2,11.1-0.1,22.2-0.1,33.3c0,1,0.2,1.9,0.2,2.9h21.5c2.4-12.6,10.4-22,18.2-31.6
	c10.5-13,14.1-28.2,11.4-44.7c-4-24.5-22.6-43-47.5-47.7c-22.8-4.3-47,7-59.3,27.7c-12.5,20.9-10.7,47.3,5.2,66.1
	c7.7,9.1,14.7,18.2,17.2,30.1H267.3z M177.7,323.3c1.3-6.6,0.9-13.6,1.2-20.6c-4.8-0.6-9-1.2-13.2-1.8c-10.7-1.6-21.3-3.1-29.1-11.8
	c-0.4-0.5-1.3-0.9-1.9-0.8c-2.7,0-8.1,5.6-8.1,8.3c0,7.2-0.2,14.5,0.1,21.7c0.5,12.9,10.5,23.6,22.8,24.8
	C163,344.3,175,336.3,177.7,323.3z M147.9,354.4c-1.1,3.2-2.2,6.2-3.3,9.3c2.6,2.7,5.2,5.5,8,8.5c2.9-3.1,5.6-6,8-8.5
	c-1.2-3.3-2.2-6.2-3.3-9.3H147.9z M157.3,354.4h-9.4c-1.1,3.2-2.2,6.2-3.3,9.3c2.6,2.7,5.2,5.5,8,8.5c2.9-3.1,5.6-6,8-8.5
	C159.4,360.4,158.4,357.5,157.3,354.4z M165.8,300.9c-10.7-1.6-21.3-3.1-29.1-11.8c-0.4-0.5-1.3-0.9-1.9-0.8c-2.7,0-8.1,5.6-8.1,8.3
	c0,7.2-0.2,14.5,0.1,21.7c0.5,12.9,10.5,23.6,22.8,24.8c13.5,1.3,25.6-6.7,28.2-19.7c1.3-6.6,0.9-13.6,1.2-20.6
	C174.1,302.1,169.9,301.5,165.8,300.9z M329.9,194c-4-24.5-22.6-43-47.5-47.7c-22.8-4.3-47,7-59.3,27.7
	c-12.5,20.9-10.7,47.3,5.2,66.1c7.7,9.1,14.7,18.2,17.2,30.1h21.8c0-12,0-23.8,0-35.7c0-0.8,0.2-1.6-0.1-2.2c-0.5-1.1-1.1-2.2-1.9-3
	c-4-4.1-8.1-8.1-12.2-12.2c-2.9-3-3.2-6.1-0.9-8.6c2.4-2.6,5.7-2.4,8.8,0.6c3.9,3.9,7.6,7.9,11.7,12c4-4,7.7-7.8,11.4-11.4
	c3.6-3.6,6.7-4,9.4-1.3c2.6,2.6,2,5.8-1.5,9.4c-3.8,3.8-7.7,7.5-11.3,11.5c-1.1,1.2-2,3.2-2,4.8c-0.2,11.1-0.1,22.2-0.1,33.3
	c0,1,0.2,1.9,0.2,2.9h21.5c2.4-12.6,10.4-22,18.2-31.6C329.1,225.7,332.6,210.4,329.9,194z M348.6,392.4c0-7-1.3-13.7-4.7-19.8
	c-8.7-15.5-22.2-22.2-39.7-21.6c-2.7,0.1-4.6,0.7-6.5,2.8c-7,7.8-14.2,15.4-21.4,23.1c-3.9,4.2-6.8,4.2-10.7,0.1
	c-5.9-6.3-12.2-12.3-17.5-19c-4.6-5.9-9.9-7.4-17.1-6.9c-19,1.4-35.4,15.6-37.2,34.5c-1.2,12.9-0.6,25.9-0.7,38.9
	c-0.1,5.2,0.3,5.5,5.5,5.5c24,0,47.9,0,71.9,0c24.3,0,48.7,0,73,0c4.4,0,5-0.5,5-4.9C348.7,414.1,348.7,403.2,348.6,392.4z
	 M389,354.4h-9.4c-1.1,2.8-2,5.2-2.8,7.7c-0.2,0.7-0.2,1.8,0.2,2.3c2.3,2.7,4.8,5.2,7.3,7.9c2.9-3.2,5.5-6,7.9-8.6
	C391.1,360.4,390.1,357.4,389,354.4z M397.7,301c-10.8-1.6-21.6-3.2-29.5-12c-0.4-0.5-1.3-0.8-1.9-0.7c-2.8,0.2-7.9,5.5-7.9,8.4
	c0,7.2-0.2,14.5,0.1,21.7c0.4,13,10.5,23.6,23.2,24.7c13.6,1.1,25.6-7.4,27.8-20.7c1.1-6.3,0.7-12.9,1-19.7
	C405.8,302,401.8,301.5,397.7,301z M397.7,301c-10.8-1.6-21.6-3.2-29.5-12c-0.4-0.5-1.3-0.8-1.9-0.7c-2.8,0.2-7.9,5.5-7.9,8.4
	c0,7.2-0.2,14.5,0.1,21.7c0.4,13,10.5,23.6,23.2,24.7c13.6,1.1,25.6-7.4,27.8-20.7c1.1-6.3,0.7-12.9,1-19.7
	C405.8,302,401.8,301.5,397.7,301z M389,354.4h-9.4c-1.1,2.8-2,5.2-2.8,7.7c-0.2,0.7-0.2,1.8,0.2,2.3c2.3,2.7,4.8,5.2,7.3,7.9
	c2.9-3.2,5.5-6,7.9-8.6C391.1,360.4,390.1,357.4,389,354.4z M348.6,392.4c0-7-1.3-13.7-4.7-19.8c-8.7-15.5-22.2-22.2-39.7-21.6
	c-2.7,0.1-4.6,0.7-6.5,2.8c-7,7.8-14.2,15.4-21.4,23.1c-3.9,4.2-6.8,4.2-10.7,0.1c-5.9-6.3-12.2-12.3-17.5-19
	c-4.6-5.9-9.9-7.4-17.1-6.9c-19,1.4-35.4,15.6-37.2,34.5c-1.2,12.9-0.6,25.9-0.7,38.9c-0.1,5.2,0.3,5.5,5.5,5.5c24,0,47.9,0,71.9,0
	c24.3,0,48.7,0,73,0c4.4,0,5-0.5,5-4.9C348.7,414.1,348.7,403.2,348.6,392.4z M329.9,194c-4-24.5-22.6-43-47.5-47.7
	c-22.8-4.3-47,7-59.3,27.7c-12.5,20.9-10.7,47.3,5.2,66.1c7.7,9.1,14.7,18.2,17.2,30.1h21.8c0-12,0-23.8,0-35.7
	c0-0.8,0.2-1.6-0.1-2.2c-0.5-1.1-1.1-2.2-1.9-3c-4-4.1-8.1-8.1-12.2-12.2c-2.9-3-3.2-6.1-0.9-8.6c2.4-2.6,5.7-2.4,8.8,0.6
	c3.9,3.9,7.6,7.9,11.7,12c4-4,7.7-7.8,11.4-11.4c3.6-3.6,6.7-4,9.4-1.3c2.6,2.6,2,5.8-1.5,9.4c-3.8,3.8-7.7,7.5-11.3,11.5
	c-1.1,1.2-2,3.2-2,4.8c-0.2,11.1-0.1,22.2-0.1,33.3c0,1,0.2,1.9,0.2,2.9h21.5c2.4-12.6,10.4-22,18.2-31.6
	C329.1,225.7,332.6,210.4,329.9,194z M165.8,300.9c-10.7-1.6-21.3-3.1-29.1-11.8c-0.4-0.5-1.3-0.9-1.9-0.8c-2.7,0-8.1,5.6-8.1,8.3
	c0,7.2-0.2,14.5,0.1,21.7c0.5,12.9,10.5,23.6,22.8,24.8c13.5,1.3,25.6-6.7,28.2-19.7c1.3-6.6,0.9-13.6,1.2-20.6
	C174.1,302.1,169.9,301.5,165.8,300.9z M157.3,354.4h-9.4c-1.1,3.2-2.2,6.2-3.3,9.3c2.6,2.7,5.2,5.5,8,8.5c2.9-3.1,5.6-6,8-8.5
	C159.4,360.4,158.4,357.5,157.3,354.4z M157.3,354.4h-9.4c-1.1,3.2-2.2,6.2-3.3,9.3c2.6,2.7,5.2,5.5,8,8.5c2.9-3.1,5.6-6,8-8.5
	C159.4,360.4,158.4,357.5,157.3,354.4z M165.8,300.9c-10.7-1.6-21.3-3.1-29.1-11.8c-0.4-0.5-1.3-0.9-1.9-0.8c-2.7,0-8.1,5.6-8.1,8.3
	c0,7.2-0.2,14.5,0.1,21.7c0.5,12.9,10.5,23.6,22.8,24.8c13.5,1.3,25.6-6.7,28.2-19.7c1.3-6.6,0.9-13.6,1.2-20.6
	C174.1,302.1,169.9,301.5,165.8,300.9z M329.9,194c-4-24.5-22.6-43-47.5-47.7c-22.8-4.3-47,7-59.3,27.7
	c-12.5,20.9-10.7,47.3,5.2,66.1c7.7,9.1,14.7,18.2,17.2,30.1h21.8c0-12,0-23.8,0-35.7c0-0.8,0.2-1.6-0.1-2.2c-0.5-1.1-1.1-2.2-1.9-3
	c-4-4.1-8.1-8.1-12.2-12.2c-2.9-3-3.2-6.1-0.9-8.6c2.4-2.6,5.7-2.4,8.8,0.6c3.9,3.9,7.6,7.9,11.7,12c4-4,7.7-7.8,11.4-11.4
	c3.6-3.6,6.7-4,9.4-1.3c2.6,2.6,2,5.8-1.5,9.4c-3.8,3.8-7.7,7.5-11.3,11.5c-1.1,1.2-2,3.2-2,4.8c-0.2,11.1-0.1,22.2-0.1,33.3
	c0,1,0.2,1.9,0.2,2.9h21.5c2.4-12.6,10.4-22,18.2-31.6C329.1,225.7,332.6,210.4,329.9,194z M348.6,392.4c0-7-1.3-13.7-4.7-19.8
	c-8.7-15.5-22.2-22.2-39.7-21.6c-2.7,0.1-4.6,0.7-6.5,2.8c-7,7.8-14.2,15.4-21.4,23.1c-3.9,4.2-6.8,4.2-10.7,0.1
	c-5.9-6.3-12.2-12.3-17.5-19c-4.6-5.9-9.9-7.4-17.1-6.9c-19,1.4-35.4,15.6-37.2,34.5c-1.2,12.9-0.6,25.9-0.7,38.9
	c-0.1,5.2,0.3,5.5,5.5,5.5c24,0,47.9,0,71.9,0c24.3,0,48.7,0,73,0c4.4,0,5-0.5,5-4.9C348.7,414.1,348.7,403.2,348.6,392.4z
	 M389,354.4h-9.4c-1.1,2.8-2,5.2-2.8,7.7c-0.2,0.7-0.2,1.8,0.2,2.3c2.3,2.7,4.8,5.2,7.3,7.9c2.9-3.2,5.5-6,7.9-8.6
	C391.1,360.4,390.1,357.4,389,354.4z M397.7,301c-10.8-1.6-21.6-3.2-29.5-12c-0.4-0.5-1.3-0.8-1.9-0.7c-2.8,0.2-7.9,5.5-7.9,8.4
	c0,7.2-0.2,14.5,0.1,21.7c0.4,13,10.5,23.6,23.2,24.7c13.6,1.1,25.6-7.4,27.8-20.7c1.1-6.3,0.7-12.9,1-19.7
	C405.8,302,401.8,301.5,397.7,301z M397.7,301c-10.8-1.6-21.6-3.2-29.5-12c-0.4-0.5-1.3-0.8-1.9-0.7c-2.8,0.2-7.9,5.5-7.9,8.4
	c0,7.2-0.2,14.5,0.1,21.7c0.4,13,10.5,23.6,23.2,24.7c13.6,1.1,25.6-7.4,27.8-20.7c1.1-6.3,0.7-12.9,1-19.7
	C405.8,302,401.8,301.5,397.7,301z M389,354.4h-9.4c-1.1,2.8-2,5.2-2.8,7.7c-0.2,0.7-0.2,1.8,0.2,2.3c2.3,2.7,4.8,5.2,7.3,7.9
	c2.9-3.2,5.5-6,7.9-8.6C391.1,360.4,390.1,357.4,389,354.4z M348.6,392.4c0-7-1.3-13.7-4.7-19.8c-8.7-15.5-22.2-22.2-39.7-21.6
	c-2.7,0.1-4.6,0.7-6.5,2.8c-7,7.8-14.2,15.4-21.4,23.1c-3.9,4.2-6.8,4.2-10.7,0.1c-5.9-6.3-12.2-12.3-17.5-19
	c-4.6-5.9-9.9-7.4-17.1-6.9c-19,1.4-35.4,15.6-37.2,34.5c-1.2,12.9-0.6,25.9-0.7,38.9c-0.1,5.2,0.3,5.5,5.5,5.5c24,0,47.9,0,71.9,0
	c24.3,0,48.7,0,73,0c4.4,0,5-0.5,5-4.9C348.7,414.1,348.7,403.2,348.6,392.4z M329.9,194c-4-24.5-22.6-43-47.5-47.7
	c-22.8-4.3-47,7-59.3,27.7c-12.5,20.9-10.7,47.3,5.2,66.1c7.7,9.1,14.7,18.2,17.2,30.1h21.8c0-12,0-23.8,0-35.7
	c0-0.8,0.2-1.6-0.1-2.2c-0.5-1.1-1.1-2.2-1.9-3c-4-4.1-8.1-8.1-12.2-12.2c-2.9-3-3.2-6.1-0.9-8.6c2.4-2.6,5.7-2.4,8.8,0.6
	c3.9,3.9,7.6,7.9,11.7,12c4-4,7.7-7.8,11.4-11.4c3.6-3.6,6.7-4,9.4-1.3c2.6,2.6,2,5.8-1.5,9.4c-3.8,3.8-7.7,7.5-11.3,11.5
	c-1.1,1.2-2,3.2-2,4.8c-0.2,11.1-0.1,22.2-0.1,33.3c0,1,0.2,1.9,0.2,2.9h21.5c2.4-12.6,10.4-22,18.2-31.6
	C329.1,225.7,332.6,210.4,329.9,194z M165.8,300.9c-10.7-1.6-21.3-3.1-29.1-11.8c-0.4-0.5-1.3-0.9-1.9-0.8c-2.7,0-8.1,5.6-8.1,8.3
	c0,7.2-0.2,14.5,0.1,21.7c0.5,12.9,10.5,23.6,22.8,24.8c13.5,1.3,25.6-6.7,28.2-19.7c1.3-6.6,0.9-13.6,1.2-20.6
	C174.1,302.1,169.9,301.5,165.8,300.9z M157.3,354.4h-9.4c-1.1,3.2-2.2,6.2-3.3,9.3c2.6,2.7,5.2,5.5,8,8.5c2.9-3.1,5.6-6,8-8.5
	C159.4,360.4,158.4,357.5,157.3,354.4z"/>
</svg>
