<?xml version="1.0" encoding="utf-8"?>
<!-- Generator: Adobe Illustrator 27.4.1, SVG Export Plug-In . SVG Version: 6.00 Build 0)  -->
<svg version="1.1" id="Capa_1" xmlns="http://www.w3.org/2000/svg" xmlns:xlink="http://www.w3.org/1999/xlink" x="0px" y="0px"
	 viewBox="0 0 591.1 591.1" style="enable-background:new 0 0 591.1 591.1;" xml:space="preserve">
<style type="text/css">
	.st0{fill:#F0F0F0;}
</style>
<path class="st0" d="M317.6,416.7c1,5.8,0.9,10.7-2.9,15.5c-6.7,8.5-12.7,17.5-19.6,27.1c-7.7-10.8-15.3-20.9-22.2-31.5
	c-1.5-2.3-0.6-6.3-0.8-10C287.8,422,302.7,421.6,317.6,416.7z"/>
<path class="st0" d="M346,366.2c-9.1,25.3-34.2,40.1-61.5,36.4c-25.7-3.5-45.8-25.3-47.2-51.5c-0.6-11.2-0.1-22.4-0.1-33.6
	c4.9-1.9,11.9,1.7,13.9-5.1c1.4-4.7,0.8-9.9,1.2-16.1c7.9,5.4,15.3,10,22.3,15.4c5.2,4,10.7,5.5,17.3,5.3
	c16.9-0.3,33.8-0.2,50.7-0.2c2.1,0,4.2,0,7,0C348.7,333.6,351.8,350.2,346,366.2z"/>
<path class="st0" d="M295.5,0C132.3,0,0,132.3,0,295.5S132.3,591,295.5,591S591,458.7,591,295.5S458.8,0,295.5,0z M295.3,49
	c24.3-0.1,45,15.4,53.5,36.7c3,7.5,4.4,15.7,4,24.2C352.2,121,348,132,341.5,141c-3.3,4.5-7.2,8.6-11.8,11.9c-5,3.7-11,5.6-16.7,8.3
	c-1,0.5-1.8,1.7-2.3,2.8c-2.9,6.8-5.8,13.6-8.6,20.4c-1.2,3-3.1,5.1-6.6,5.1c-3.5,0-5.3-2.1-6.6-5.1c-2.8-6.7-5.5-13.4-8.5-20
	c-0.7-1.5-2.3-2.9-3.8-3.7c-5.1-2.7-10.5-4.5-15.3-7.9c-14-10.1-22.3-26.2-23-43.3C236.8,76.9,262.8,49.1,295.3,49z M404.7,524.7
	c0,9.6-7.8,17.4-17.5,17.4l-183.6-1.2c-9.5-0.1-17.3-7.8-17.3-17.4v-38.8c0-36.4,29.5-65.8,65.8-65.8h2.2c1-4.4,0.8-8.6-4.8-12.6
	c-16.5-11.5-26.3-27.7-29.7-47.6c-0.7-3.9-2-6.3-5.8-8.3c-17.6-9.4-21.1-32.6-7.7-47.4c2-2.2,3.3-5.6,3.5-8.5
	c0.5-8.9-0.1-17.9,0.4-26.8c1.6-27,19.9-47.7,46.7-49.5c24.9-1.6,50.1-1.4,75.1,0.3c24.4,1.7,43.5,24.1,44.2,48.7
	c0.3,9.3-0.1,18.6,0.3,28c0.1,2.4,1.1,5.3,2.8,7c14.6,15.7,10.9,38.6-7.8,49c-2,1.1-3.9,3.7-4.3,5.9c-3,18-10.8,33.4-24.9,44.8
	c-6.4,5.2-7.3,10.6-5.7,18.3h2.5c36.3,0,65.8,29.5,65.8,65.8V524.7z M323.7,113c4.9,0,8.9-4.1,8.8-9c-0.1-4.7-4.1-8.5-8.9-8.4
	c-4.9,0.1-8.5,3.8-8.5,8.7C315.1,109.1,319,113,323.7,113z M295.3,113c4.9,0.1,9-4,8.9-8.8c-0.1-4.8-4-8.5-8.8-8.5
	c-4.8,0-8.7,3.8-8.7,8.6C286.7,108.9,290.7,112.9,295.3,113z M267.6,113c4.7-0.2,8.5-4.2,8.4-8.9c-0.1-4.8-3.9-8.5-8.8-8.4
	c-4.8,0.1-8.6,4-8.6,8.7C258.6,109.1,262.8,113.2,267.6,113z"/>
</svg>
