<?xml version="1.0" encoding="utf-8"?>
<!-- Generator: Adobe Illustrator 27.4.1, SVG Export Plug-In . SVG Version: 6.00 Build 0)  -->
<svg version="1.1" id="Capa_1" xmlns="http://www.w3.org/2000/svg" xmlns:xlink="http://www.w3.org/1999/xlink" x="0px" y="0px"
	 viewBox="0 0 591.1 591.1" style="enable-background:new 0 0 591.1 591.1;" xml:space="preserve">
<style type="text/css">
	.st0{fill:#F0F0F0;}
</style>
<polygon class="st0" points="187.9,333.1 175.1,187.5 416.2,187.5 411.8,235.2 228,235.2 232.1,284.6 407.7,284.6 394.1,433 
	296.2,460 296.2,460.3 295.1,460.3 196.4,433 190.4,357.2 238.1,357.2 241.6,395.3 295.1,409.8 348.8,395.3 354.8,333.1 "/>
<path class="st0" d="M295.6,0C132.3,0,0,132.3,0,295.6s132.3,295.6,295.6,295.6c163.2,0,295.6-132.3,295.6-295.6S458.8,0,295.6,0z
	 M452.7,503.1l-157.6,52.2l-156.6-52.2l-34.9-395.8h384L452.7,503.1z"/>
</svg>
