<?xml version="1.0" encoding="utf-8"?>
<!-- Generator: Adobe Illustrator 27.4.1, SVG Export Plug-In . SVG Version: 6.00 Build 0)  -->
<svg version="1.1" id="Capa_1" xmlns="http://www.w3.org/2000/svg" xmlns:xlink="http://www.w3.org/1999/xlink" x="0px" y="0px"
	 viewBox="0 0 591.1 591.1" style="enable-background:new 0 0 591.1 591.1;" xml:space="preserve">
<style type="text/css">
	.st0{fill:#F0F0F0;}
</style>
<polygon class="st0" points="180.2,234.6 174.5,187.3 416.7,187.3 411.8,234.6 296.5,283.9 296.2,284 407.8,284 395,430.6 
	296.8,459.3 198,430.1 191.5,356.2 240.5,356.2 243.7,394.5 296.2,407.8 351,392.4 354.7,330.8 188.3,330.3 188.3,330.2 
	188.2,330.3 184.5,284 296.7,237.3 303.2,234.6 "/>
<path class="st0" d="M295.5,0C132.3,0,0,132.3,0,295.5s132.3,295.5,295.5,295.5s295.5-132.3,295.5-295.5S458.8,0,295.5,0z
	 M452.7,503.1l-157.1,52.2l-157.1-52.2l-34.9-395.8h384L452.7,503.1z"/>
</svg>
