<?xml version="1.0" encoding="utf-8"?>
<!-- Generator: Adobe Illustrator 27.4.1, SVG Export Plug-In . SVG Version: 6.00 Build 0)  -->
<svg version="1.1" id="Capa_1" xmlns="http://www.w3.org/2000/svg" xmlns:xlink="http://www.w3.org/1999/xlink" x="0px" y="0px"
	 viewBox="0 0 538 538" style="enable-background:new 0 0 538 538;" xml:space="preserve">
<style type="text/css">
	.st0{fill:#F0F0F0;}
</style>
<path class="st0" d="M493,120c-19.8-29.7-45.3-55.2-75-75C375.3,16.6,324.1,0,269,0S162.7,16.6,120,45c-29.7,19.8-55.2,45.3-75,75
	C16.6,162.7,0,213.9,0,269c0,55.1,16.6,106.3,45,149c19.8,29.7,45.3,55.2,75,75c42.6,28.4,93.9,45,149,45s106.3-16.6,149-45
	c29.7-19.8,55.2-45.3,75-75c28.4-42.7,45-93.9,45-149C538,213.9,521.4,162.7,493,120z M288.8,250.7v143.7
	c0,43.6-25.6,63.5-62.9,63.5c-33.7,0-53.2-17.4-63.2-38.5l34.3-20.7c6.6,11.7,12.6,21.6,27.1,21.6c13.8,0,22.6-5.4,22.6-26.5V250.7
	H288.8z M388.4,457.9c-39.1,0-64.4-18.6-76.7-43l34.3-19.8c9,14.7,20.8,25.6,41.5,25.6c17.4,0,28.6-8.7,28.6-20.8
	c0-14.4-11.4-19.5-30.7-28l-10.5-4.5c-30.4-12.9-50.5-29.2-50.5-63.5c0-31.6,24.1-55.6,61.6-55.6c26.8,0,46,9.3,59.8,33.7L413,303
	c-7.2-12.9-15-18-27.1-18c-12.3,0-20.1,7.8-20.1,18c0,12.6,7.8,17.7,25.9,25.6l10.5,4.5c35.8,15.3,55.9,31,55.9,66.2
	C458.1,437.1,428.3,457.9,388.4,457.9z"/>
</svg>
