<?xml version="1.0" encoding="utf-8"?>
<!-- Generator: Adobe Illustrator 27.4.1, SVG Export Plug-In . SVG Version: 6.00 Build 0)  -->
<svg version="1.1" id="Capa_1" xmlns="http://www.w3.org/2000/svg" xmlns:xlink="http://www.w3.org/1999/xlink" x="0px" y="0px"
	 viewBox="0 0 1020 298.7" style="enable-background:new 0 0 1020 298.7;" xml:space="preserve">
<style type="text/css">
	.st0{fill:#F0F0F0;}
</style>
<path class="st0" d="M368.2,9.2H88.7C64.3,9.2,44.6,29,44.6,53.3v192.1c0,24.3,19.7,44.1,44.1,44.1h279.5
	c24.3,0,44.1-19.7,44.1-44.1V53.3C412.2,29,392.5,9.2,368.2,9.2z M124.3,212c-2.9,0-5.9-1-8.4-3c-5.6-4.6-6.4-12.9-1.8-18.5
	l42.3-51.1l-42.3-51.1c-4.6-5.6-3.8-13.9,1.8-18.5c5.6-4.6,13.9-3.8,18.5,1.7l49.2,59.5c4,4.9,4,11.9,0,16.7l-49.2,59.5
	C131.8,210.4,128.1,212,124.3,212z M288,240.7h-91.5c-7.2,0-13.1-5.9-13.1-13.1s5.9-13.1,13.1-13.1H288c7.2,0,13.1,5.9,13.1,13.1
	S295.3,240.7,288,240.7z M516.6,44h-22.9l-25.9,74.9h17.8l5.4-15.5h27.9l5.2,15.5h18.1L516.6,44z M495.6,88.5l9.5-28h0.2l8.8,28
	H495.6z M584,62.5c-3.4,0-6.5,1-9.5,3c-3,2-5.2,4.4-6.7,7.2h-0.2l-0.3-8.8h-16.4v55.1h16.7V83.1c4.5-2.4,10-3.6,16.4-3.6h1.7v-17
	H584z M623.4,62.5c-21.2,0-31.8,9.8-31.8,29.4c0,8.9,2.3,15.6,6.8,20c4.5,4.5,10.2,6.7,17,6.7c5.9,0,10.4-1.9,13.7-5.7h0.2v1.8
	c0,5.1-1.3,8.8-3.9,11.1c-2.6,2.4-6.9,3.5-13.1,3.5c-5.3,0-9.3-0.5-11.9-1.4h-0.7v12c3.9,1.8,9,2.6,15.5,2.6c5.3,0,9.8-0.6,13.6-1.7
	c3.8-1.1,6.8-2.6,9-4.3c2.2-1.7,3.9-4,5.1-6.7c1.2-2.8,2.1-5.4,2.4-8s0.5-5.6,0.5-8.9V63.8C640.4,62.9,632.8,62.5,623.4,62.5z
	 M629.4,103.8c-1.9,1.6-4.7,2.3-8.3,2.3c-3.8,0-6.8-1.3-9-3.8c-2.2-2.5-3.3-6.3-3.3-11.3c0-10.4,5-15.5,15-15.5c2.2,0,4,0.2,5.6,0.4
	V103.8z M709,97c0.4-3.3,0.5-6.2,0.5-8.6c0-9.2-2.2-15.8-6.6-19.9c-4.4-4.1-10.8-6.1-19-6.1c-8.9,0-15.7,2.7-20.2,7.9
	c-4.5,5.3-6.8,12.5-6.8,21.7c0,9.2,2.4,16.1,7.1,20.9c4.7,4.8,12.3,7.2,22.6,7.2c8.2,0,14.8-0.8,19.8-2.3v-12.6h-0.8
	c-5.2,1.1-10.9,1.7-17.1,1.7c-9.6,0-14.4-3.1-14.4-9.3V97H709z M676.8,78.6c1.5-2,4-3,7.4-3c6.1,0,9.1,3.4,9.1,10.1h-19
	C674.5,83,675.3,80.6,676.8,78.6z M767.3,67.4c-3-3.3-7.5-4.9-13.3-4.9c-6.4,0-12,2.5-16.7,7.5H737l-0.3-6.2h-16.4v55.1H737V80.4
	c2.6-2.4,5.8-3.6,9.6-3.6c3.2,0,5.4,0.8,6.7,2.5c1.2,1.7,1.8,4.1,1.8,7.4v32.2h16.7V81.7C771.8,75.4,770.3,70.6,767.3,67.4z
	 M820.7,76.8v-13h-14.8V46.6h-1.2l-15.5,3.6v13.6l-12,1.1v11.9h12v20.8c0,7.7,1.6,13.4,4.8,17.1c3.2,3.7,8.3,5.5,15.3,5.5
	c4.7,0,8.2-0.5,10.6-1.7v-12h-0.8c-1.3,0.4-2.9,0.7-4.7,0.7c-3,0-5.2-0.8-6.5-2.3c-1.4-1.5-2-4-2-7.3V76.8H820.7z M845.5,38.9
	c-1.7-1.9-4.1-2.8-7.1-2.8c-3.1,0-5.5,0.9-7.2,2.8c-1.7,1.8-2.6,4.2-2.6,7c0,3,0.8,5.5,2.5,7.3c1.7,1.9,4.1,2.8,7.2,2.8
	c3.1,0,5.5-0.9,7.1-2.8c1.7-1.9,2.5-4.3,2.5-7.3C848,43.1,847.1,40.8,845.5,38.9z M829.9,63.8v55.1h16.7V63.8H829.9z M908.1,67.4
	c-3-3.3-7.5-4.9-13.4-4.9c-6.4,0-11.9,2.5-16.7,7.5h-0.2l-0.3-6.2h-16.4v55.1h16.7V80.4c2.6-2.4,5.8-3.6,9.6-3.6
	c3.2,0,5.4,0.8,6.7,2.5c1.2,1.7,1.8,4.1,1.8,7.4v32.2h16.7V81.7C912.7,75.4,911.1,70.6,908.1,67.4z M972.8,98.8V86.5
	c0-7.5-2-13.4-5.9-17.6c-3.9-4.2-10.8-6.4-20.6-6.4c-8.5,0-14.9,0.8-19.1,2.3v12.4h1.1c3.9-1.2,8.2-1.8,12.7-1.8
	c10.1,0,15.1,2.8,15.1,8.5v0.6l-9.3,0.7c-8.4,0.6-14.5,2.4-18.3,5.4c-3.8,3.1-5.6,7.4-5.6,12.9c0,5.2,1.6,9.3,4.8,12.2
	c3.2,2.9,7.7,4.4,13.7,4.4c7.4,0,13-2.2,16.5-6.6h0.2c0.2,2.1,0.8,4.3,1.9,6.6l15.4-1.3C973.7,114.5,972.8,107.8,972.8,98.8z
	 M956.1,103.8c-2.2,2.1-5.2,3.1-9,3.1c-4.6,0-6.9-1.8-6.9-5.3c0-3.3,2.1-5.2,6.3-5.6l9.5-1V103.8z M523.4,181.7
	c-3.6-4.7-9.1-7.1-16.4-7.1c-6.7,0-12.2,2.5-16.4,7.6h-0.1l-0.3-6.3h-16.4v78.8l16.7-1.1v-24.5h0.2c2.4,2.1,6.1,3.2,11.1,3.2
	c8.9,0,15.7-2.3,20.2-7c4.5-4.7,6.8-12.6,6.8-23.9C528.8,193.1,527,186.5,523.4,181.7z M508.6,216.1c-2.3,2.2-5.6,3.2-9.9,3.2
	c-4,0-6.8-0.8-8.2-2.5v-25.4c2.8-2,5.9-3,9.4-3c4.2,0,7.2,1.2,9.2,3.5c2,2.4,2.9,6.2,2.9,11.7C512.1,209.8,510.9,214,508.6,216.1z
	 M572.7,174.6c-3.4,0-6.5,1-9.5,3c-3,2-5.2,4.4-6.7,7.2h-0.2l-0.3-8.8h-16.4V231h16.7v-35.8c4.5-2.4,10-3.6,16.4-3.6h1.7v-17H572.7z
	 M630.4,182.4c-4.4-5.1-11.7-7.7-21.8-7.7c-10,0-17.2,2.6-21.7,7.8c-4.4,5.2-6.7,12.1-6.7,20.8c0,8.7,2.2,15.8,6.7,21.2
	c4.4,5.4,11.7,8,21.7,8s17.2-2.7,21.7-8.1c4.5-5.4,6.7-12.5,6.7-21.2C637,194.4,634.8,187.5,630.4,182.4z M619.6,211.1
	c-0.5,2.2-1.6,4.1-3.4,5.8s-4.3,2.5-7.6,2.5c-4.5,0-7.6-1.5-9.2-4.4c-1.6-2.9-2.4-6.9-2.4-11.9c0-4.8,0.8-8.6,2.4-11.3
	c1.6-2.7,4.6-4.1,9.2-4.1c4.6,0,7.8,1.3,9.3,4c1.6,2.7,2.4,6.5,2.4,11.4C620.3,206.2,620.1,208.9,619.6,211.1z M675.7,174.6
	c-21.2,0-31.8,9.8-31.8,29.4c0,8.9,2.2,15.6,6.8,20.1c4.5,4.5,10.2,6.7,17.1,6.7c5.9,0,10.4-1.9,13.7-5.7h0.2v1.8
	c0,5.1-1.3,8.8-3.9,11.1c-2.6,2.4-6.9,3.5-13.1,3.5c-5.3,0-9.3-0.5-11.9-1.4h-0.6v12c3.9,1.8,9,2.6,15.6,2.6c5.3,0,9.8-0.6,13.6-1.7
	c3.8-1.1,6.8-2.6,9-4.3c2.2-1.7,3.9-4,5.2-6.7s2-5.4,2.4-8c0.4-2.6,0.5-5.5,0.5-8.9V176C692.8,175.1,685.2,174.6,675.7,174.6z
	 M681.7,216c-1.9,1.5-4.7,2.3-8.2,2.3c-3.8,0-6.8-1.3-9-3.8c-2.2-2.5-3.3-6.3-3.3-11.3c0-10.3,5-15.5,15-15.5c2.1,0,4,0.1,5.6,0.4
	V216z M746.1,174.6c-3.4,0-6.5,1-9.5,3c-3,2-5.2,4.4-6.7,7.2h-0.2l-0.3-8.8H713V231h16.7v-35.8c4.5-2.4,10-3.6,16.4-3.6h1.7v-17
	H746.1z M804.2,211v-12.3c0-7.5-2-13.4-5.9-17.6s-10.8-6.4-20.6-6.4c-8.5,0-14.9,0.8-19.1,2.3v12.5h1.1c3.9-1.2,8.2-1.8,12.7-1.8
	c10.1,0,15.1,2.8,15.1,8.5v0.5l-9.3,0.7c-8.4,0.6-14.5,2.4-18.3,5.4c-3.8,3.1-5.6,7.4-5.6,12.9c0,5.2,1.6,9.3,4.8,12.2
	c3.2,2.9,7.7,4.4,13.7,4.4c7.4,0,12.9-2.2,16.5-6.6h0.2c0.2,2.1,0.9,4.3,1.9,6.6l15.4-1.3C805.1,226.7,804.2,220,804.2,211z
	 M787.5,216c-2.2,2-5.2,3.1-9,3.1c-4.6,0-6.9-1.8-6.9-5.3c0-3.3,2.1-5.2,6.3-5.6l9.5-1V216z M897.7,179.2c-2.7-3.1-7.3-4.6-13.7-4.6
	c-6.1,0-11.9,2.5-17.4,7.5h-0.2c-2.3-5-7.1-7.5-14.4-7.5c-6.8,0-12.4,2.5-16.9,7.4h-0.2l-0.3-6.1h-16.4V231h16.7v-39.3
	c2.8-2,5.8-3,9.1-3c2.8,0,4.8,0.7,6.1,2c1.3,1.3,1.9,3.7,1.9,7.1V231h16.7v-35.5c0-1.8-0.1-3.2-0.2-4.1c2.2-1.8,5-2.8,8.4-2.8
	c3.1,0,5.3,0.7,6.4,2.2c1.1,1.5,1.7,3.5,1.7,6.2V231h16.7v-37.3C901.8,187.1,900.5,182.3,897.7,179.2z M962,211v-12.3
	c0-7.5-2-13.4-5.9-17.6c-3.9-4.3-10.8-6.4-20.6-6.4c-8.5,0-14.9,0.8-19.1,2.3v12.5h1.1c3.9-1.2,8.1-1.8,12.6-1.8
	c10.1,0,15.1,2.8,15.1,8.5v0.5l-9.3,0.7c-8.4,0.6-14.5,2.4-18.3,5.4c-3.8,3.1-5.6,7.4-5.6,12.9c0,5.2,1.6,9.3,4.8,12.2
	c3.2,2.9,7.7,4.4,13.7,4.4c7.4,0,13-2.2,16.5-6.6h0.2c0.2,2.1,0.9,4.3,1.9,6.6l15.4-1.3C962.8,226.7,962,220,962,211z M945.3,216
	c-2.2,2-5.2,3.1-9,3.1c-4.6,0-6.9-1.8-6.9-5.3c0-3.3,2.1-5.2,6.3-5.6l9.5-1V216z"/>
</svg>
